<svg width="50" height="50" viewBox="0 0 50 50" fill="none" xmlns="http://www.w3.org/2000/svg">
<path d="M49.9081 11.8565C49.736 11.2166 49.3161 10.671 48.7417 10.3403C48.1668 10.0079 47.4834 9.91797 46.8422 10.0901C46.2018 10.2626 45.6563 10.682 45.3255 11.2564L44.9089 11.9814C44.5131 11.754 44.0074 11.8878 43.7759 12.2817L41.6596 15.889L40.9346 15.4724C40.7426 15.3614 40.5139 15.3313 40.2999 15.389C40.0855 15.4472 39.9033 15.588 39.793 15.7808C39.5672 16.1791 39.7047 16.6852 40.1014 16.9138L40.8264 17.3304L33.7442 29.6033L31.9945 34.2778L31.1613 35.8356C30.6735 36.6842 30.7255 37.7392 31.2947 38.5353L29.42 40.8347L28.8952 39.5186C28.6584 38.932 28.1104 38.53 27.4803 38.4808C26.8497 38.4312 26.2455 38.7428 25.9205 39.2851L25.6206 39.7933L25.3375 36.4605C25.2724 35.672 24.6617 35.0382 23.8765 34.943C23.0909 34.8482 22.3473 35.3189 22.0962 36.0691L20.0466 42.218C19.9034 42.6529 20.1378 43.1215 20.5714 43.268C20.6528 43.3058 20.7403 43.3286 20.8298 43.3343C21.1878 43.3355 21.5067 43.1073 21.6215 42.768L23.6625 36.6192L23.9542 40.0015C24.0145 40.7233 24.5332 41.3233 25.2386 41.4869C25.9441 41.6504 26.6739 41.3396 27.0453 40.7184L27.3537 40.2098L27.8704 41.5182C28.0897 42.0695 28.5856 42.4629 29.1727 42.5504C29.7597 42.6378 30.3488 42.4063 30.7199 41.9429L32.6613 39.4853C32.8761 39.5414 33.0974 39.5695 33.3195 39.5687C34.2125 39.5756 35.0416 39.1053 35.494 38.3352L36.3272 36.9438L39.5017 33.0862L46.6587 20.6632L47.3837 21.0798C47.5769 21.1905 47.7177 21.3731 47.7751 21.5883C47.8328 21.8019 47.8027 22.0298 47.6921 22.2214L44.3593 27.9955C44.2336 28.1851 44.1909 28.4178 44.2413 28.64C44.2918 28.8617 44.4305 29.0533 44.6258 29.1701C44.8178 29.2815 45.0464 29.3116 45.2604 29.2539C45.4748 29.1957 45.6571 29.0549 45.7673 28.8621L49.1001 23.0879C49.4325 22.5131 49.5224 21.8296 49.3499 21.1884C49.1774 20.5481 48.758 20.0025 48.1835 19.6718L47.4585 19.2552L49.5415 15.6474C49.7689 15.2515 49.6351 14.7462 49.2417 14.5144L49.6583 13.7894C49.9996 13.2056 50.0899 12.5083 49.9081 11.8565ZM46.7669 12.0896C46.8772 11.8968 47.0602 11.7556 47.2755 11.6983C47.4895 11.6454 47.7157 11.6751 47.9085 11.7817C48.1017 11.8919 48.2425 12.075 48.3003 12.2898C48.3532 12.5038 48.3235 12.73 48.2169 12.9228L47.8003 13.6478L46.3503 12.8146L46.7669 12.0896ZM35.4106 35.3527L34.994 35.111L33.7609 34.3942L34.944 31.2282L37.5685 32.7445L35.4106 35.3527ZM32.911 37.7603C32.5591 37.515 32.4509 37.0431 32.6613 36.6688L33.0778 35.9442L34.5274 36.7774L34.1108 37.4938C33.994 37.6964 33.7979 37.8405 33.5697 37.8913C33.3415 37.9418 33.1027 37.8946 32.911 37.7603ZM38.5184 31.3783L35.6356 29.712L42.3011 18.1636L45.1839 19.83L38.5184 31.3783ZM46.0171 18.3886L43.1343 16.7222L44.8007 13.8394L47.6835 15.5058L46.0171 18.3886Z" fill="#FFBB01"/>
<path d="M13.1476 37.3436L10.1985 40.285L8.43203 38.5186C8.10697 38.1955 7.58216 38.1955 7.2571 38.5186C7.09925 38.6752 7.01056 38.888 7.01056 39.1101C7.01056 39.3322 7.09925 39.5454 7.2571 39.7016L9.02356 41.4681C9.33601 41.7781 9.7583 41.9518 10.1985 41.9514C10.6411 41.9538 11.0671 41.7801 11.3816 41.4681L14.3225 38.5186C14.6057 38.1878 14.5866 37.6951 14.279 37.3876C13.971 37.0796 13.4784 37.0605 13.1476 37.3436Z" fill="#FFBB01"/>
<path d="M3.33282 39.585C3.33282 43.4966 6.50367 46.6671 10.415 46.6671C14.3262 46.6671 17.4971 43.4966 17.4971 39.585C17.4971 39.1248 17.124 38.7518 16.6639 38.7518C16.2038 38.7518 15.8307 39.1248 15.8307 39.585C15.8307 42.576 13.406 45.0007 10.415 45.0007C7.42392 45.0007 4.99921 42.576 4.99921 39.585C4.99921 36.5939 7.42392 34.1692 10.415 34.1692C11.5874 34.166 12.7286 34.5463 13.6643 35.2526C14.0325 35.5288 14.5549 35.454 14.8307 35.0858C15.1069 34.7176 15.0325 34.1957 14.6643 33.9194C12.5183 32.31 9.64685 32.0512 7.24777 33.2506C4.84827 34.4503 3.33282 36.9027 3.33282 39.585Z" fill="#FFBB01"/>
<path d="M29.9948 6.67383C30.455 6.67383 30.828 6.30117 30.828 5.84064C30.828 5.38051 30.455 5.00745 29.9948 5.00745H8.33185C7.87172 5.00745 7.49866 5.38051 7.49866 5.84064V9.1734C7.49866 9.63394 7.87172 10.0066 8.33185 10.0066H29.9948C30.455 10.0066 30.828 9.63394 30.828 9.1734C30.828 8.71328 30.455 8.34021 29.9948 8.34021H9.16504V6.67383H29.9948Z" fill="#FFBB01"/>
<path d="M10.8315 11.673C10.3714 11.673 9.99829 12.0461 9.99829 12.5062C9.99829 12.9668 10.3714 13.3394 10.8315 13.3394H27.4953C27.9554 13.3394 28.3285 12.9668 28.3285 12.5062C28.3285 12.0461 27.9554 11.673 27.4953 11.673H10.8315Z" fill="#FFBB01"/>
<path d="M32.4945 17.5053H14.1643C13.7042 17.5053 13.3311 17.8784 13.3311 18.3385C13.3311 18.799 13.7042 19.1717 14.1643 19.1717H32.4945C32.9546 19.1717 33.3277 18.799 33.3277 18.3385C33.3277 17.8784 32.9546 17.5053 32.4945 17.5053Z" fill="#FFBB01"/>
<path d="M24.1625 23.3377C24.1625 22.8776 23.7895 22.5045 23.3294 22.5045H6.66553C6.2054 22.5045 5.83234 22.8776 5.83234 23.3377C5.83234 23.7982 6.2054 24.1709 6.66553 24.1709H23.3294C23.7895 24.1709 24.1625 23.7982 24.1625 23.3377Z" fill="#FFBB01"/>
<path d="M32.4944 22.5045H26.6621C26.202 22.5045 25.8289 22.8776 25.8289 23.3377C25.8289 23.7982 26.202 24.1709 26.6621 24.1709H32.4944C32.9546 24.1709 33.3276 23.7982 33.3276 23.3377C33.3276 22.8776 32.9546 22.5045 32.4944 22.5045Z" fill="#FFBB01"/>
<path d="M14.9974 28.3368C15.4576 28.3368 15.8306 27.9642 15.8306 27.5037C15.8306 27.0435 15.4576 26.6705 14.9974 26.6705H6.66553C6.2054 26.6705 5.83234 27.0435 5.83234 27.5037C5.83234 27.9642 6.2054 28.3368 6.66553 28.3368H14.9974Z" fill="#FFBB01"/>
<path d="M18.3301 28.3368H24.1625C24.6226 28.3368 24.9957 27.9642 24.9957 27.5037C24.9957 27.0435 24.6226 26.6705 24.1625 26.6705H18.3301C17.87 26.6705 17.4969 27.0435 17.4969 27.5037C17.4969 27.9642 17.87 28.3368 18.3301 28.3368Z" fill="#FFBB01"/>
<path d="M37.4936 38.3352C37.0335 38.3352 36.6604 38.7082 36.6604 39.1684V47.5003C36.6604 47.9608 36.2874 48.3335 35.8272 48.3335H2.49957C2.03945 48.3335 1.66638 47.9608 1.66638 47.5003V2.50794C1.66638 2.04781 2.03945 1.67474 2.49957 1.67474H35.8272C36.2874 1.67474 36.6604 2.04781 36.6604 2.50794V18.1555C36.6604 18.6156 37.0335 18.9887 37.4936 18.9887C37.9537 18.9887 38.3268 18.6156 38.3268 18.1555V2.50794C38.3268 1.12756 37.2076 0.00836182 35.8272 0.00836182H2.49957C1.11919 0.00836182 0 1.12756 0 2.50794V47.5003C0 48.8811 1.11919 49.9998 2.49957 49.9998H35.8272C37.2076 49.9998 38.3268 48.8811 38.3268 47.5003V39.1684C38.3268 38.7082 37.9537 38.3352 37.4936 38.3352Z" fill="#FFBB01"/>
</svg>
